  0
SECTION
  2
BLOCKS
  0
ENDSEC
  0
SECTION
  2
ENTITIES
  0
LINE
  8
0
 10
50
 20
0
 11
150
 21
0
  0
LINE
  8
0
 10
150
 20
0
 11
150
 21
50
  0
LINE
  8
0
 10
150
 20
50
 11
50
 21
50
  0
LINE
  8
0
 10
50
 20
50
 11
50
 21
85
  0
LINE
  8
0
 10
50
 20
85
 11
0
 21
85
  0
LINE
  8
0
 10
0
 20
85
 11
0
 21
-35
  0
LINE
  8
0
 10
0
 20
-35
 11
50
 21
-35
  0
LINE
  8
0
 10
50
 20
-35
 11
50
 21
0
  0
LINE
  8
0
 10
36.542
 20
71.2277
 11
35.6525
 21
71.4469
  0
LINE
  8
0
 10
35.6525
 20
71.4469
 11
34.8414
 21
71.8727
  0
LINE
  8
0
 10
34.8414
 20
71.8727
 11
34.1557
 21
72.4801
  0
LINE
  8
0
 10
34.1557
 20
72.4801
 11
33.6353
 21
73.2341
  0
LINE
  8
0
 10
33.6353
 20
73.2341
 11
33.3104
 21
74.0906
  0
LINE
  8
0
 10
33.3104
 20
74.0906
 11
33.2
 21
75
  0
LINE
  8
0
 10
33.2
 20
75
 11
33.3104
 21
75.9094
  0
LINE
  8
0
 10
33.3104
 20
75.9094
 11
33.6353
 21
76.7659
  0
LINE
  8
0
 10
33.6353
 20
76.7659
 11
34.1557
 21
77.5199
  0
LINE
  8
0
 10
34.1557
 20
77.5199
 11
34.8414
 21
78.1273
  0
LINE
  8
0
 10
34.8414
 20
78.1273
 11
35.6525
 21
78.5531
  0
LINE
  8
0
 10
35.6525
 20
78.5531
 11
36.542
 21
78.7723
  0
LINE
  8
0
 10
36.542
 20
78.7723
 11
37.458
 21
78.7723
  0
LINE
  8
0
 10
37.458
 20
78.7723
 11
38.3475
 21
78.5531
  0
LINE
  8
0
 10
38.3475
 20
78.5531
 11
39.1586
 21
78.1273
  0
LINE
  8
0
 10
39.1586
 20
78.1273
 11
39.8443
 21
77.5199
  0
LINE
  8
0
 10
39.8443
 20
77.5199
 11
40.3647
 21
76.7659
  0
LINE
  8
0
 10
40.3647
 20
76.7659
 11
40.6896
 21
75.9094
  0
LINE
  8
0
 10
40.6896
 20
75.9094
 11
40.8
 21
75
  0
LINE
  8
0
 10
40.8
 20
75
 11
40.6896
 21
74.0906
  0
LINE
  8
0
 10
40.6896
 20
74.0906
 11
40.3647
 21
73.2341
  0
LINE
  8
0
 10
40.3647
 20
73.2341
 11
39.8443
 21
72.4801
  0
LINE
  8
0
 10
39.8443
 20
72.4801
 11
39.1586
 21
71.8727
  0
LINE
  8
0
 10
39.1586
 20
71.8727
 11
38.3475
 21
71.4469
  0
LINE
  8
0
 10
38.3475
 20
71.4469
 11
37.458
 21
71.2277
  0
LINE
  8
0
 10
37.458
 20
71.2277
 11
36.542
 21
71.2277
  0
LINE
  8
0
 10
11.5419
 20
71.2277
 11
10.6525
 21
71.4469
  0
LINE
  8
0
 10
10.6525
 20
71.4469
 11
9.84134
 21
71.8727
  0
LINE
  8
0
 10
9.84134
 20
71.8727
 11
9.15565
 21
72.4801
  0
LINE
  8
0
 10
9.15565
 20
72.4801
 11
8.63525
 21
73.2341
  0
LINE
  8
0
 10
8.63525
 20
73.2341
 11
8.31041
 21
74.0906
  0
LINE
  8
0
 10
8.31041
 20
74.0906
 11
8.2
 21
75
  0
LINE
  8
0
 10
8.2
 20
75
 11
8.31041
 21
75.9094
  0
LINE
  8
0
 10
8.31041
 20
75.9094
 11
8.63525
 21
76.7659
  0
LINE
  8
0
 10
8.63525
 20
76.7659
 11
9.15565
 21
77.5199
  0
LINE
  8
0
 10
9.15565
 20
77.5199
 11
9.84134
 21
78.1273
  0
LINE
  8
0
 10
9.84134
 20
78.1273
 11
10.6525
 21
78.5531
  0
LINE
  8
0
 10
10.6525
 20
78.5531
 11
11.5419
 21
78.7723
  0
LINE
  8
0
 10
11.5419
 20
78.7723
 11
12.458
 21
78.7723
  0
LINE
  8
0
 10
12.458
 20
78.7723
 11
13.3475
 21
78.5531
  0
LINE
  8
0
 10
13.3475
 20
78.5531
 11
14.1586
 21
78.1273
  0
LINE
  8
0
 10
14.1586
 20
78.1273
 11
14.8443
 21
77.5199
  0
LINE
  8
0
 10
14.8443
 20
77.5199
 11
15.3647
 21
76.7659
  0
LINE
  8
0
 10
15.3647
 20
76.7659
 11
15.6896
 21
75.9094
  0
LINE
  8
0
 10
15.6896
 20
75.9094
 11
15.8
 21
75
  0
LINE
  8
0
 10
15.8
 20
75
 11
15.6896
 21
74.0906
  0
LINE
  8
0
 10
15.6896
 20
74.0906
 11
15.3647
 21
73.2341
  0
LINE
  8
0
 10
15.3647
 20
73.2341
 11
14.8443
 21
72.4801
  0
LINE
  8
0
 10
14.8443
 20
72.4801
 11
14.1586
 21
71.8727
  0
LINE
  8
0
 10
14.1586
 20
71.8727
 11
13.3475
 21
71.4469
  0
LINE
  8
0
 10
13.3475
 20
71.4469
 11
12.458
 21
71.2277
  0
LINE
  8
0
 10
12.458
 20
71.2277
 11
11.5419
 21
71.2277
  0
LINE
  8
0
 10
36.542
 20
51.2277
 11
35.6525
 21
51.4469
  0
LINE
  8
0
 10
35.6525
 20
51.4469
 11
34.8414
 21
51.8727
  0
LINE
  8
0
 10
34.8414
 20
51.8727
 11
34.1557
 21
52.4801
  0
LINE
  8
0
 10
34.1557
 20
52.4801
 11
33.6353
 21
53.234
  0
LINE
  8
0
 10
33.6353
 20
53.234
 11
33.3104
 21
54.0906
  0
LINE
  8
0
 10
33.3104
 20
54.0906
 11
33.2
 21
55
  0
LINE
  8
0
 10
33.2
 20
55
 11
33.3104
 21
55.9094
  0
LINE
  8
0
 10
33.3104
 20
55.9094
 11
33.6353
 21
56.7659
  0
LINE
  8
0
 10
33.6353
 20
56.7659
 11
34.1557
 21
57.5199
  0
LINE
  8
0
 10
34.1557
 20
57.5199
 11
34.8414
 21
58.1273
  0
LINE
  8
0
 10
34.8414
 20
58.1273
 11
35.6525
 21
58.5531
  0
LINE
  8
0
 10
35.6525
 20
58.5531
 11
36.542
 21
58.7723
  0
LINE
  8
0
 10
36.542
 20
58.7723
 11
37.458
 21
58.7723
  0
LINE
  8
0
 10
37.458
 20
58.7723
 11
38.3475
 21
58.5531
  0
LINE
  8
0
 10
38.3475
 20
58.5531
 11
39.1586
 21
58.1273
  0
LINE
  8
0
 10
39.1586
 20
58.1273
 11
39.8443
 21
57.5199
  0
LINE
  8
0
 10
39.8443
 20
57.5199
 11
40.3647
 21
56.7659
  0
LINE
  8
0
 10
40.3647
 20
56.7659
 11
40.6896
 21
55.9094
  0
LINE
  8
0
 10
40.6896
 20
55.9094
 11
40.8
 21
55
  0
LINE
  8
0
 10
40.8
 20
55
 11
40.6896
 21
54.0906
  0
LINE
  8
0
 10
40.6896
 20
54.0906
 11
40.3647
 21
53.234
  0
LINE
  8
0
 10
40.3647
 20
53.234
 11
39.8443
 21
52.4801
  0
LINE
  8
0
 10
39.8443
 20
52.4801
 11
39.1586
 21
51.8727
  0
LINE
  8
0
 10
39.1586
 20
51.8727
 11
38.3475
 21
51.4469
  0
LINE
  8
0
 10
38.3475
 20
51.4469
 11
37.458
 21
51.2277
  0
LINE
  8
0
 10
37.458
 20
51.2277
 11
36.542
 21
51.2277
  0
LINE
  8
0
 10
11.5419
 20
51.2277
 11
10.6525
 21
51.4469
  0
LINE
  8
0
 10
10.6525
 20
51.4469
 11
9.84134
 21
51.8727
  0
LINE
  8
0
 10
9.84134
 20
51.8727
 11
9.15565
 21
52.4801
  0
LINE
  8
0
 10
9.15565
 20
52.4801
 11
8.63525
 21
53.234
  0
LINE
  8
0
 10
8.63525
 20
53.234
 11
8.31041
 21
54.0906
  0
LINE
  8
0
 10
8.31041
 20
54.0906
 11
8.2
 21
55
  0
LINE
  8
0
 10
8.2
 20
55
 11
8.31041
 21
55.9094
  0
LINE
  8
0
 10
8.31041
 20
55.9094
 11
8.63525
 21
56.7659
  0
LINE
  8
0
 10
8.63525
 20
56.7659
 11
9.15565
 21
57.5199
  0
LINE
  8
0
 10
9.15565
 20
57.5199
 11
9.84134
 21
58.1273
  0
LINE
  8
0
 10
9.84134
 20
58.1273
 11
10.6525
 21
58.5531
  0
LINE
  8
0
 10
10.6525
 20
58.5531
 11
11.5419
 21
58.7723
  0
LINE
  8
0
 10
11.5419
 20
58.7723
 11
12.458
 21
58.7723
  0
LINE
  8
0
 10
12.458
 20
58.7723
 11
13.3475
 21
58.5531
  0
LINE
  8
0
 10
13.3475
 20
58.5531
 11
14.1586
 21
58.1273
  0
LINE
  8
0
 10
14.1586
 20
58.1273
 11
14.8443
 21
57.5199
  0
LINE
  8
0
 10
14.8443
 20
57.5199
 11
15.3647
 21
56.7659
  0
LINE
  8
0
 10
15.3647
 20
56.7659
 11
15.6896
 21
55.9094
  0
LINE
  8
0
 10
15.6896
 20
55.9094
 11
15.8
 21
55
  0
LINE
  8
0
 10
15.8
 20
55
 11
15.6896
 21
54.0906
  0
LINE
  8
0
 10
15.6896
 20
54.0906
 11
15.3647
 21
53.234
  0
LINE
  8
0
 10
15.3647
 20
53.234
 11
14.8443
 21
52.4801
  0
LINE
  8
0
 10
14.8443
 20
52.4801
 11
14.1586
 21
51.8727
  0
LINE
  8
0
 10
14.1586
 20
51.8727
 11
13.3475
 21
51.4469
  0
LINE
  8
0
 10
13.3475
 20
51.4469
 11
12.458
 21
51.2277
  0
LINE
  8
0
 10
12.458
 20
51.2277
 11
11.5419
 21
51.2277
  0
LINE
  8
0
 10
14.4314
 20
33.25
 11
13.5114
 21
33.9185
  0
LINE
  8
0
 10
13.5114
 20
33.9185
 11
13.16
 21
35
  0
LINE
  8
0
 10
13.16
 20
35
 11
13.5114
 21
36.0815
  0
LINE
  8
0
 10
13.5114
 20
36.0815
 11
14.4314
 21
36.7499
  0
LINE
  8
0
 10
14.4314
 20
36.7499
 11
15.5686
 21
36.7499
  0
LINE
  8
0
 10
15.5686
 20
36.7499
 11
16.4886
 21
36.0815
  0
LINE
  8
0
 10
16.4886
 20
36.0815
 11
16.84
 21
35
  0
LINE
  8
0
 10
16.84
 20
35
 11
16.4886
 21
33.9185
  0
LINE
  8
0
 10
16.4886
 20
33.9185
 11
15.5686
 21
33.25
  0
LINE
  8
0
 10
15.5686
 20
33.25
 11
14.4314
 21
33.25
  0
LINE
  8
0
 10
34.4314
 20
33.25
 11
33.5114
 21
33.9185
  0
LINE
  8
0
 10
33.5114
 20
33.9185
 11
33.16
 21
35
  0
LINE
  8
0
 10
33.16
 20
35
 11
33.5114
 21
36.0815
  0
LINE
  8
0
 10
33.5114
 20
36.0815
 11
34.4314
 21
36.7499
  0
LINE
  8
0
 10
34.4314
 20
36.7499
 11
35.5686
 21
36.7499
  0
LINE
  8
0
 10
35.5686
 20
36.7499
 11
36.4886
 21
36.0815
  0
LINE
  8
0
 10
36.4886
 20
36.0815
 11
36.84
 21
35
  0
LINE
  8
0
 10
36.84
 20
35
 11
36.4886
 21
33.9185
  0
LINE
  8
0
 10
36.4886
 20
33.9185
 11
35.5686
 21
33.25
  0
LINE
  8
0
 10
35.5686
 20
33.25
 11
34.4314
 21
33.25
  0
LINE
  8
0
 10
129.732
 20
31.1391
 11
128.769
 21
31.5792
  0
LINE
  8
0
 10
128.769
 20
31.5792
 11
128.196
 21
32.4703
  0
LINE
  8
0
 10
128.196
 20
32.4703
 11
128.196
 21
33.5296
  0
LINE
  8
0
 10
128.196
 20
33.5296
 11
128.769
 21
34.4208
  0
LINE
  8
0
 10
128.769
 20
34.4208
 11
129.732
 21
34.8609
  0
LINE
  8
0
 10
129.732
 20
34.8609
 11
130.781
 21
34.7101
  0
LINE
  8
0
 10
130.781
 20
34.7101
 11
131.582
 21
34.0164
  0
LINE
  8
0
 10
131.582
 20
34.0164
 11
131.88
 21
33
  0
LINE
  8
0
 10
131.88
 20
33
 11
131.582
 21
31.9836
  0
LINE
  8
0
 10
131.582
 20
31.9836
 11
130.781
 21
31.2899
  0
LINE
  8
0
 10
130.781
 20
31.2899
 11
129.732
 21
31.1391
  0
LINE
  8
0
 10
129.732
 20
15.1391
 11
128.769
 21
15.5792
  0
LINE
  8
0
 10
128.769
 20
15.5792
 11
128.196
 21
16.4703
  0
LINE
  8
0
 10
128.196
 20
16.4703
 11
128.196
 21
17.5296
  0
LINE
  8
0
 10
128.196
 20
17.5296
 11
128.769
 21
18.4208
  0
LINE
  8
0
 10
128.769
 20
18.4208
 11
129.732
 21
18.8609
  0
LINE
  8
0
 10
129.732
 20
18.8609
 11
130.781
 21
18.7101
  0
LINE
  8
0
 10
130.781
 20
18.7101
 11
131.582
 21
18.0164
  0
LINE
  8
0
 10
131.582
 20
18.0164
 11
131.88
 21
17
  0
LINE
  8
0
 10
131.88
 20
17
 11
131.582
 21
15.9836
  0
LINE
  8
0
 10
131.582
 20
15.9836
 11
130.781
 21
15.2899
  0
LINE
  8
0
 10
130.781
 20
15.2899
 11
129.732
 21
15.1391
  0
LINE
  8
0
 10
14.4314
 20
13.25
 11
13.5114
 21
13.9185
  0
LINE
  8
0
 10
13.5114
 20
13.9185
 11
13.16
 21
15
  0
LINE
  8
0
 10
13.16
 20
15
 11
13.5114
 21
16.0815
  0
LINE
  8
0
 10
13.5114
 20
16.0815
 11
14.4314
 21
16.7499
  0
LINE
  8
0
 10
14.4314
 20
16.7499
 11
15.5686
 21
16.7499
  0
LINE
  8
0
 10
15.5686
 20
16.7499
 11
16.4886
 21
16.0815
  0
LINE
  8
0
 10
16.4886
 20
16.0815
 11
16.84
 21
15
  0
LINE
  8
0
 10
16.84
 20
15
 11
16.4886
 21
13.9185
  0
LINE
  8
0
 10
16.4886
 20
13.9185
 11
15.5686
 21
13.25
  0
LINE
  8
0
 10
15.5686
 20
13.25
 11
14.4314
 21
13.25
  0
LINE
  8
0
 10
34.4314
 20
13.25
 11
33.5114
 21
13.9185
  0
LINE
  8
0
 10
33.5114
 20
13.9185
 11
33.16
 21
15
  0
LINE
  8
0
 10
33.16
 20
15
 11
33.5114
 21
16.0815
  0
LINE
  8
0
 10
33.5114
 20
16.0815
 11
34.4314
 21
16.7499
  0
LINE
  8
0
 10
34.4314
 20
16.7499
 11
35.5686
 21
16.7499
  0
LINE
  8
0
 10
35.5686
 20
16.7499
 11
36.4886
 21
16.0815
  0
LINE
  8
0
 10
36.4886
 20
16.0815
 11
36.84
 21
15
  0
LINE
  8
0
 10
36.84
 20
15
 11
36.4886
 21
13.9185
  0
LINE
  8
0
 10
36.4886
 20
13.9185
 11
35.5686
 21
13.25
  0
LINE
  8
0
 10
35.5686
 20
13.25
 11
34.4314
 21
13.25
  0
LINE
  8
0
 10
36.542
 20
-8.77229
 11
35.6525
 21
-8.55305
  0
LINE
  8
0
 10
35.6525
 20
-8.55305
 11
34.8414
 21
-8.12733
  0
LINE
  8
0
 10
34.8414
 20
-8.12733
 11
34.1557
 21
-7.51985
  0
LINE
  8
0
 10
34.1557
 20
-7.51985
 11
33.6353
 21
-6.76595
  0
LINE
  8
0
 10
33.6353
 20
-6.76595
 11
33.3104
 21
-5.90939
  0
LINE
  8
0
 10
33.3104
 20
-5.90939
 11
33.2
 21
-5
  0
LINE
  8
0
 10
33.2
 20
-5
 11
33.3104
 21
-4.09059
  0
LINE
  8
0
 10
33.3104
 20
-4.09059
 11
33.6353
 21
-3.23404
  0
LINE
  8
0
 10
33.6353
 20
-3.23404
 11
34.1557
 21
-2.48013
  0
LINE
  8
0
 10
34.1557
 20
-2.48013
 11
34.8414
 21
-1.87265
  0
LINE
  8
0
 10
34.8414
 20
-1.87265
 11
35.6525
 21
-1.44693
  0
LINE
  8
0
 10
35.6525
 20
-1.44693
 11
36.542
 21
-1.22769
  0
LINE
  8
0
 10
36.542
 20
-1.22769
 11
37.458
 21
-1.22769
  0
LINE
  8
0
 10
37.458
 20
-1.22769
 11
38.3475
 21
-1.44693
  0
LINE
  8
0
 10
38.3475
 20
-1.44693
 11
39.1586
 21
-1.87265
  0
LINE
  8
0
 10
39.1586
 20
-1.87265
 11
39.8443
 21
-2.48013
  0
LINE
  8
0
 10
39.8443
 20
-2.48013
 11
40.3647
 21
-3.23404
  0
LINE
  8
0
 10
40.3647
 20
-3.23404
 11
40.6896
 21
-4.09059
  0
LINE
  8
0
 10
40.6896
 20
-4.09059
 11
40.8
 21
-5
  0
LINE
  8
0
 10
40.8
 20
-5
 11
40.6896
 21
-5.90939
  0
LINE
  8
0
 10
40.6896
 20
-5.90939
 11
40.3647
 21
-6.76595
  0
LINE
  8
0
 10
40.3647
 20
-6.76595
 11
39.8443
 21
-7.51985
  0
LINE
  8
0
 10
39.8443
 20
-7.51985
 11
39.1586
 21
-8.12733
  0
LINE
  8
0
 10
39.1586
 20
-8.12733
 11
38.3475
 21
-8.55305
  0
LINE
  8
0
 10
38.3475
 20
-8.55305
 11
37.458
 21
-8.77229
  0
LINE
  8
0
 10
37.458
 20
-8.77229
 11
36.542
 21
-8.77229
  0
LINE
  8
0
 10
11.5419
 20
-8.77229
 11
10.6525
 21
-8.55305
  0
LINE
  8
0
 10
10.6525
 20
-8.55305
 11
9.84134
 21
-8.12733
  0
LINE
  8
0
 10
9.84134
 20
-8.12733
 11
9.15565
 21
-7.51985
  0
LINE
  8
0
 10
9.15565
 20
-7.51985
 11
8.63525
 21
-6.76595
  0
LINE
  8
0
 10
8.63525
 20
-6.76595
 11
8.31041
 21
-5.90939
  0
LINE
  8
0
 10
8.31041
 20
-5.90939
 11
8.2
 21
-5
  0
LINE
  8
0
 10
8.2
 20
-5
 11
8.31041
 21
-4.09059
  0
LINE
  8
0
 10
8.31041
 20
-4.09059
 11
8.63525
 21
-3.23404
  0
LINE
  8
0
 10
8.63525
 20
-3.23404
 11
9.15565
 21
-2.48013
  0
LINE
  8
0
 10
9.15565
 20
-2.48013
 11
9.84134
 21
-1.87265
  0
LINE
  8
0
 10
9.84134
 20
-1.87265
 11
10.6525
 21
-1.44693
  0
LINE
  8
0
 10
10.6525
 20
-1.44693
 11
11.5419
 21
-1.22769
  0
LINE
  8
0
 10
11.5419
 20
-1.22769
 11
12.458
 21
-1.22769
  0
LINE
  8
0
 10
12.458
 20
-1.22769
 11
13.3475
 21
-1.44693
  0
LINE
  8
0
 10
13.3475
 20
-1.44693
 11
14.1586
 21
-1.87265
  0
LINE
  8
0
 10
14.1586
 20
-1.87265
 11
14.8443
 21
-2.48013
  0
LINE
  8
0
 10
14.8443
 20
-2.48013
 11
15.3647
 21
-3.23404
  0
LINE
  8
0
 10
15.3647
 20
-3.23404
 11
15.6896
 21
-4.09059
  0
LINE
  8
0
 10
15.6896
 20
-4.09059
 11
15.8
 21
-5
  0
LINE
  8
0
 10
15.8
 20
-5
 11
15.6896
 21
-5.90939
  0
LINE
  8
0
 10
15.6896
 20
-5.90939
 11
15.3647
 21
-6.76595
  0
LINE
  8
0
 10
15.3647
 20
-6.76595
 11
14.8443
 21
-7.51985
  0
LINE
  8
0
 10
14.8443
 20
-7.51985
 11
14.1586
 21
-8.12733
  0
LINE
  8
0
 10
14.1586
 20
-8.12733
 11
13.3475
 21
-8.55305
  0
LINE
  8
0
 10
13.3475
 20
-8.55305
 11
12.458
 21
-8.77229
  0
LINE
  8
0
 10
12.458
 20
-8.77229
 11
11.5419
 21
-8.77229
  0
LINE
  8
0
 10
36.542
 20
-28.7723
 11
35.6525
 21
-28.5531
  0
LINE
  8
0
 10
35.6525
 20
-28.5531
 11
34.8414
 21
-28.1273
  0
LINE
  8
0
 10
34.8414
 20
-28.1273
 11
34.1557
 21
-27.5199
  0
LINE
  8
0
 10
34.1557
 20
-27.5199
 11
33.6353
 21
-26.7659
  0
LINE
  8
0
 10
33.6353
 20
-26.7659
 11
33.3104
 21
-25.9094
  0
LINE
  8
0
 10
33.3104
 20
-25.9094
 11
33.2
 21
-25
  0
LINE
  8
0
 10
33.2
 20
-25
 11
33.3104
 21
-24.0906
  0
LINE
  8
0
 10
33.3104
 20
-24.0906
 11
33.6353
 21
-23.234
  0
LINE
  8
0
 10
33.6353
 20
-23.234
 11
34.1557
 21
-22.4801
  0
LINE
  8
0
 10
34.1557
 20
-22.4801
 11
34.8414
 21
-21.8727
  0
LINE
  8
0
 10
34.8414
 20
-21.8727
 11
35.6525
 21
-21.4469
  0
LINE
  8
0
 10
35.6525
 20
-21.4469
 11
36.542
 21
-21.2277
  0
LINE
  8
0
 10
36.542
 20
-21.2277
 11
37.458
 21
-21.2277
  0
LINE
  8
0
 10
37.458
 20
-21.2277
 11
38.3475
 21
-21.4469
  0
LINE
  8
0
 10
38.3475
 20
-21.4469
 11
39.1586
 21
-21.8727
  0
LINE
  8
0
 10
39.1586
 20
-21.8727
 11
39.8443
 21
-22.4801
  0
LINE
  8
0
 10
39.8443
 20
-22.4801
 11
40.3647
 21
-23.234
  0
LINE
  8
0
 10
40.3647
 20
-23.234
 11
40.6896
 21
-24.0906
  0
LINE
  8
0
 10
40.6896
 20
-24.0906
 11
40.8
 21
-25
  0
LINE
  8
0
 10
40.8
 20
-25
 11
40.6896
 21
-25.9094
  0
LINE
  8
0
 10
40.6896
 20
-25.9094
 11
40.3647
 21
-26.7659
  0
LINE
  8
0
 10
40.3647
 20
-26.7659
 11
39.8443
 21
-27.5199
  0
LINE
  8
0
 10
39.8443
 20
-27.5199
 11
39.1586
 21
-28.1273
  0
LINE
  8
0
 10
39.1586
 20
-28.1273
 11
38.3475
 21
-28.5531
  0
LINE
  8
0
 10
38.3475
 20
-28.5531
 11
37.458
 21
-28.7723
  0
LINE
  8
0
 10
37.458
 20
-28.7723
 11
36.542
 21
-28.7723
  0
LINE
  8
0
 10
11.5419
 20
-28.7723
 11
10.6525
 21
-28.5531
  0
LINE
  8
0
 10
10.6525
 20
-28.5531
 11
9.84134
 21
-28.1273
  0
LINE
  8
0
 10
9.84134
 20
-28.1273
 11
9.15565
 21
-27.5199
  0
LINE
  8
0
 10
9.15565
 20
-27.5199
 11
8.63525
 21
-26.7659
  0
LINE
  8
0
 10
8.63525
 20
-26.7659
 11
8.31041
 21
-25.9094
  0
LINE
  8
0
 10
8.31041
 20
-25.9094
 11
8.2
 21
-25
  0
LINE
  8
0
 10
8.2
 20
-25
 11
8.31041
 21
-24.0906
  0
LINE
  8
0
 10
8.31041
 20
-24.0906
 11
8.63525
 21
-23.234
  0
LINE
  8
0
 10
8.63525
 20
-23.234
 11
9.15565
 21
-22.4801
  0
LINE
  8
0
 10
9.15565
 20
-22.4801
 11
9.84134
 21
-21.8727
  0
LINE
  8
0
 10
9.84134
 20
-21.8727
 11
10.6525
 21
-21.4469
  0
LINE
  8
0
 10
10.6525
 20
-21.4469
 11
11.5419
 21
-21.2277
  0
LINE
  8
0
 10
11.5419
 20
-21.2277
 11
12.458
 21
-21.2277
  0
LINE
  8
0
 10
12.458
 20
-21.2277
 11
13.3475
 21
-21.4469
  0
LINE
  8
0
 10
13.3475
 20
-21.4469
 11
14.1586
 21
-21.8727
  0
LINE
  8
0
 10
14.1586
 20
-21.8727
 11
14.8443
 21
-22.4801
  0
LINE
  8
0
 10
14.8443
 20
-22.4801
 11
15.3647
 21
-23.234
  0
LINE
  8
0
 10
15.3647
 20
-23.234
 11
15.6896
 21
-24.0906
  0
LINE
  8
0
 10
15.6896
 20
-24.0906
 11
15.8
 21
-25
  0
LINE
  8
0
 10
15.8
 20
-25
 11
15.6896
 21
-25.9094
  0
LINE
  8
0
 10
15.6896
 20
-25.9094
 11
15.3647
 21
-26.7659
  0
LINE
  8
0
 10
15.3647
 20
-26.7659
 11
14.8443
 21
-27.5199
  0
LINE
  8
0
 10
14.8443
 20
-27.5199
 11
14.1586
 21
-28.1273
  0
LINE
  8
0
 10
14.1586
 20
-28.1273
 11
13.3475
 21
-28.5531
  0
LINE
  8
0
 10
13.3475
 20
-28.5531
 11
12.458
 21
-28.7723
  0
LINE
  8
0
 10
12.458
 20
-28.7723
 11
11.5419
 21
-28.7723
  0
ENDSEC
  0
SECTION
  2
OBJECTS
  0
DICTIONARY
  0
ENDSEC
  0
EOF
